<?xml version="1.0" encoding="utf-8"?>
<!-- Generator: Adobe Illustrator 12.0.0, SVG Export Plug-In . SVG Version: 6.00 Build 51448)  -->
<!DOCTYPE svg PUBLIC "-//W3C//DTD SVG 1.1//EN" "http://www.w3.org/Graphics/SVG/1.1/DTD/svg11.dtd" [
	<!ENTITY ns_svg "http://www.w3.org/2000/svg">
	<!ENTITY ns_xlink "http://www.w3.org/1999/xlink">
]>
<svg  version="1.1" id="Layer_1" xmlns="&ns_svg;" xmlns:xlink="&ns_xlink;" width="517" height="500" viewBox="0 0 517 500"
	 overflow="visible" enable-background="new 0 0 517 500" xml:space="preserve">
<g id="shadow">
	<radialGradient id="XMLID_5_" cx="63.75" cy="246.375" r="58.375" gradientUnits="userSpaceOnUse">
		<stop  offset="0" style="stop-color:#000000"/>
		<stop  offset="0.0641" style="stop-color:#191919"/>
		<stop  offset="0.2539" style="stop-color:#5E5E5E"/>
		<stop  offset="0.4336" style="stop-color:#979797"/>
		<stop  offset="0.5979" style="stop-color:#C4C4C4"/>
		<stop  offset="0.7439" style="stop-color:#E4E4E4"/>
		<stop  offset="0.866" style="stop-color:#F8F8F8"/>
		<stop  offset="0.9494" style="stop-color:#FFFFFF"/>
	</radialGradient>
	<circle opacity="0.3" fill="url(#XMLID_5_)" cx="63.75" cy="246.375" r="58.375"/>
</g>
<g id="boost">
	<text transform="matrix(0.9848 0 -0.1736 0.9848 128.1865 269.8252)" fill="#4A6484" font-family="'Denmark'" font-size="101.123">boost</text>
</g>
<g id="c_x2B__x2B__libs">
	<g>
		
			<text transform="matrix(0.9698 0 -0.1736 0.9848 129.4995 290.7246)" fill="#4A6484" font-family="'Denmark'" font-size="14.216" letter-spacing="13.405">C++ LIBRARIES</text>
	</g>
</g>
<g id="left-down">
	<linearGradient id="XMLID_6_" gradientUnits="userSpaceOnUse" x1="28.6553" y1="262.375" x2="72.8267" y2="262.375">
		<stop  offset="0" style="stop-color:#8AACD6"/>
		<stop  offset="1" style="stop-color:#A7C7E6"/>
	</linearGradient>
	<polygon fill="url(#XMLID_6_)" points="39.724,243.375 28.655,262.286 39.721,281.375 61.665,281.375 72.827,262.465 
		61.668,243.375 	"/>
	<path fill="#FFFFFF" d="M62.242,242.375h-1.148H40.297H39.15l-0.579,0.99l-10.485,17.914l-0.589,1.005l0.585,1.008l10.485,18.086
		l0.578,0.997h1.152h20.797h1.142l0.58-0.983l10.572-17.913l0.597-1.012l-0.592-1.014l-10.572-18.087L62.242,242.375L62.242,242.375
		z M29.812,262.289l10.485-17.914h20.797l10.572,18.087l0,0l0,0l-10.572,17.913H40.297L29.812,262.289L29.812,262.289
		L29.812,262.289z"/>
</g>
<g id="right-center">
	<linearGradient id="XMLID_7_" gradientUnits="userSpaceOnUse" x1="66.6689" y1="242.2266" x2="110.314" y2="242.2266">
		<stop  offset="0.0056" style="stop-color:#B1D2EC"/>
		<stop  offset="1" style="stop-color:#C8E6F6"/>
	</linearGradient>
	<polygon fill="url(#XMLID_7_)" points="77.164,223.15 66.669,241.262 78.307,261.304 99.112,261.21 110.314,242.047 99.106,223.15 
			"/>
	<path fill="#FFFFFF" d="M99.675,222.15h-1.139H77.739h-1.153l-0.578,0.997l-9.914,17.112l-0.581,1.004l0.582,1.003l11.056,19.039
		l0.582,1.001l1.157-0.005l19.655-0.088l1.142-0.005l0.576-0.986l10.617-18.162l0.594-1.016l-0.601-1.013l-10.617-17.901
		L99.675,222.15L99.675,222.15z M67.825,241.262l9.914-17.112h20.797l10.617,17.901l0,0l0,0l-10.617,18.162l-19.655,0.088
		L67.825,241.262L67.825,241.262L67.825,241.262z"/>
</g>
<g id="left-up">
	<linearGradient id="XMLID_8_" gradientUnits="userSpaceOnUse" x1="39.3022" y1="222.792" x2="78.6255" y2="222.792">
		<stop  offset="0.0056" style="stop-color:#B1D2EC"/>
		<stop  offset="1" style="stop-color:#C8E6F6"/>
	</linearGradient>
	<path fill="url(#XMLID_8_)" d="M50.211,207.025L39.302,226.07l6.912,12.442l16.451,0.047c0,0,11.104-18.828,11.656-19.763
		c0.766,0,4.304,0,4.304,0l-6.704-11.771H50.211z"/>
	<path fill="#FFFFFF" d="M72.503,206.025H71.34H50.79h-1.159l-0.576,1.006l-10.34,18.053l-0.561,0.979l0.548,0.986l6.353,11.436
		l0.569,1.026l1.173,0.003l15.292,0.044l1.146,0.003l0.583-0.987l11.075-18.778h2.012h3.441l-1.703-2.99l-5.565-9.771
		L72.503,206.025L72.503,206.025z M40.45,226.078l10.34-18.053h20.55l5.565,9.771l0,0l0,0H73.75l-11.655,19.762l-15.292-0.044
		L40.45,226.078L40.45,226.078L40.45,226.078z"/>
</g>
</svg>
