<?xml version="1.0" encoding="UTF-8"?>
<svg id="Layer_1" data-name="Layer 1" xmlns="http://www.w3.org/2000/svg" viewBox="0 0 2472.56 813.85">
  <defs>
    <style>
      .cls-1 {
        fill: #ff9f00;
      }

      .cls-2 {
        fill: #191919;
      }
    </style>
  </defs>
  <path class="cls-1" d="m574.45,259.92h0c0-66.66-40.06-123.94-97.41-149.16l-185.71,295.7H99.45L291.79,97.24H98.2v21.83h-.03v596.51l193.88-308.79h189.17l-190.01,309.82h120.33c89.97,0,162.9-72.93,162.9-162.9h0c0-63.27-39.38-120.05-92.1-147.05,54.5-26.34,92.1-82.14,92.1-146.74Z"/>
  <g>
    <path class="cls-2" d="m1177.31,477.16c-3.15-11.29-7.82-21.83-14.06-31.49-12.18-18.7-28.85-32.37-49.57-40.6,18.61-9.05,33.57-22.78,44.48-40.94,11.09-18.64,16.67-40.88,16.67-66.11,0-39.24-12.06-71.28-35.82-95.29-23.76-23.94-59.63-36.11-106.66-36.11l-199.13.2v482.21h205.8c45.76,0,81.45-12.04,106-35.71,24.6-23.74,37.03-57.33,37.03-99.84,0-12.85-1.58-24.96-4.73-36.32Zm-270.7-234.71h126.35c22.24,0,39.21,5.58,50.36,16.46,11.03,10.88,16.67,26.32,16.67,45.91,0,40.94-22.54,61.69-67.03,61.69h-126.35v-124.06Zm131.13,330.75h-131.13v-130.11h131.8c21.94,0,39.03,5.78,50.91,17.07,11.88,11.29,17.88,27.41,17.88,47.95,0,43.8-22.73,65.09-69.45,65.09Z"/>
    <path class="cls-2" d="m2161.84,546.59c0,34.91-10.4,60.97-31,77.46-20.02,16.04-50.89,24.26-91.77,24.39h-131.11l21.11-62.19h106.92c19.96,0,35.04-2.95,44.99-8.79,8.92-5.33,13.22-13.86,13.22-26.06,0-8.79-2.12-15.34-6.35-19.51-4.62-4.68-10.78-8.21-18.23-10.52l-4.11-1.28c-6.16-2.05-12.45-4.11-25.03-5.97l-14.5-2.44c-23.23-3.72-41.97-8.47-55.58-14.18-14.44-6.03-25.67-15.08-33.56-26.83-7.77-11.68-11.74-27.66-11.74-47.62,0-8.09.58-15.59,1.73-22.4,2.18-13.09,6.42-24.64,12.71-34.27,17.97-27.98,53.39-42.16,105.38-42.16h108.13v61.8h-104.93v-.19l-3.27.06c-52.17.84-52.17,23.68-52.17,31.19s1.99,13.16,6.03,17.01c4.49,4.36,10.46,7.57,17.65,9.69,8.09,2.38,36.96,9.05,45.31,10.65,23.94,4.49,43.06,9.75,56.67,15.66,14.5,6.29,25.54,15.66,32.79,27.92,7.12,12.13,10.72,28.43,10.72,48.58Z"/>
    <path class="cls-2" d="m2039.07,648.44h-131.11l21.11-62.19h106.92c19.96,0,35.04-2.95,44.99-8.79,8.92-5.33,13.22-13.86,13.22-26.06,0-8.79-2.12-15.34-6.35-19.51-4.62-4.68-10.78-8.21-18.23-10.52l-4.11-1.28c-6.16-2.05-12.45-4.11-25.03-5.97l-14.5-2.44c-23.23-3.72-41.97-8.47-55.58-14.18-14.44-6.03-25.67-15.08-33.56-26.83-7.77-11.68-11.74-27.66-11.74-47.62,0-8.09.58-15.59,1.73-22.4,2.18-13.09,6.42-24.64,12.71-34.27,17.97-27.98,53.39-42.16,105.38-42.16h108.13v61.8h-104.93v-.19l-3.27.06c-52.17.84-52.17,23.68-52.17,31.19s1.99,13.16,6.03,17.01c4.49,4.36,10.46,7.57,17.65,9.69,8.09,2.38,36.96,9.05,45.31,10.65,23.94,4.49,43.06,9.75,56.67,15.66,14.5,6.29,25.54,15.66,32.79,27.92,7.12,12.13,10.72,28.43,10.72,48.58,0,34.91-10.4,60.97-31,77.46-20.02,16.04-50.89,24.26-91.77,24.39Z"/>
    <path class="cls-2" d="m2212.98,240.27l70.66-.19.26,83.56,86.32-.13v61.42l-86.12.19.45,198.17,89.85-.26-22.85,61.99-96.07.26c-22.85,0-41.46-18.61-41.46-41.39l-1.03-363.62Z"/>
    <path class="cls-2" d="m2374.38,583.03l-22.85,61.99-96.07.26c-22.85,0-41.46-18.61-41.46-41.39l-1.03-363.62,70.66-.19.26,83.56,86.32-.13v61.42l-86.12.19.45,198.17,89.85-.26Z"/>
    <path class="cls-2" d="m1379.93,319.8c-52.14,0-90.74,13.93-114.69,41.38-23.76,27.2-35.8,70.46-35.8,128.58s11.81,99.4,35.11,126.38c23.54,27.27,62.36,41.09,115.38,41.09s91.86-13.94,115.4-41.43c23.29-27.19,35.1-69.6,35.1-126.05s-11.92-100.81-35.43-128.22c-23.78-27.69-62.5-41.73-115.06-41.73Zm-67.8,103.79c4.52-14.68,12.04-25.14,22.37-31.12,10.79-6.22,26.07-9.38,45.44-9.38s34.5,3.15,45.05,9.36c10.14,5.97,17.57,16.35,22.1,30.86,4.83,15.5,7.27,37.85,7.27,66.45s-2.34,48.95-6.96,64.01c-4.38,14.3-11.52,24.3-21.83,30.55h0c-10.52,6.39-25.88,9.63-45.63,9.63s-35.26-3.25-46.02-9.66c-10.5-6.24-17.73-16.32-22.11-30.82-4.62-15.24-6.96-36.68-6.96-63.71s2.45-50.49,7.28-66.17Z"/>
    <path class="cls-2" d="m1842.89,361.53c-23.78-27.69-62.5-41.73-115.06-41.73s-90.74,13.93-114.7,41.38c-23.75,27.2-35.8,70.46-35.8,128.58s11.81,99.4,35.11,126.38c23.54,27.27,62.36,41.09,115.38,41.09s91.86-13.94,115.4-41.43c23.29-27.19,35.1-69.6,35.1-126.05s-11.92-100.81-35.43-128.22Zm-40.65,128.22c0,27.42-2.34,48.96-6.95,64.01-4.38,14.3-11.52,24.3-21.83,30.55h0c-10.52,6.39-25.88,9.63-45.63,9.63s-35.26-3.25-46.02-9.66c-10.5-6.24-17.73-16.32-22.11-30.82-4.62-15.25-6.96-36.68-6.96-63.71s2.45-50.49,7.28-66.17c4.52-14.68,12.04-25.14,22.37-31.12,10.79-6.22,26.07-9.38,45.44-9.38s34.5,3.15,45.05,9.36c10.14,5.97,17.57,16.35,22.1,30.86,4.82,15.48,7.26,37.84,7.26,66.45Z"/>
  </g>
</svg>